<?xml version="1.0" encoding="UTF-8" ?>
<!DOCTYPE svg PUBLIC "-//W3C//DTD SVG 1.1//EN" "http://www.w3.org/Graphics/SVG/1.1/DTD/svg11.dtd">
<svg width="1125pt" height="1125pt" viewBox="0 0 1125 1125" version="1.1" xmlns="http://www.w3.org/2000/svg">
<path fill="#005abb" stroke="#005abb" stroke-width="0.09375" opacity="1.00" d=" M 301.79 398.83 C 307.01 397.07 312.52 396.23 318.02 396.25 C 403.69 396.25 489.37 396.25 575.04 396.25 C 585.09 396.34 595.49 395.41 605.07 399.14 C 624.16 405.70 638.02 424.84 638.11 445.05 C 638.15 503.02 638.13 560.99 638.12 618.96 C 638.18 639.47 624.05 658.92 604.62 665.39 C 597.06 668.18 588.92 668.30 580.96 668.15 C 549.97 668.15 518.98 668.15 487.98 668.15 C 466.27 668.02 444.29 669.18 422.93 664.43 C 402.52 660.20 382.49 651.37 367.78 636.27 C 354.24 623.48 346.02 606.05 342.10 588.04 C 333.67 548.94 344.62 506.09 370.87 475.91 C 386.49 458.15 408.63 446.71 431.86 442.86 C 449.44 440.17 467.63 439.93 485.01 444.09 C 504.93 448.73 523.89 459.19 536.58 475.48 C 557.67 500.62 563.19 537.85 549.93 567.91 C 544.45 580.77 535.77 592.09 525.47 601.48 C 515.59 610.06 503.39 616.67 490.14 617.61 C 485.21 618.31 480.31 617.10 475.47 616.34 C 471.75 615.78 469.59 612.35 466.89 610.11 C 463.44 607.47 463.99 602.66 462.79 598.91 C 455.36 607.15 445.94 613.81 435.13 616.69 C 423.30 619.43 410.41 615.59 401.50 607.48 C 397.50 604.40 394.92 599.98 392.07 595.92 C 384.57 582.39 382.44 566.18 385.41 551.05 C 388.26 535.71 395.24 521.20 405.34 509.33 C 415.13 498.17 429.02 490.12 443.98 488.98 C 449.91 489.16 456.03 489.87 461.43 492.51 C 469.65 495.82 475.68 502.61 480.77 509.63 C 482.02 503.84 483.25 498.04 484.54 492.26 C 491.93 492.25 499.32 492.15 506.71 492.32 C 500.13 523.55 493.15 554.70 486.83 585.99 C 485.76 589.07 487.09 592.03 488.40 594.79 C 490.22 595.54 492.03 596.29 493.86 597.04 C 496.76 596.18 499.76 595.57 502.57 594.40 C 529.63 580.10 543.72 546.39 536.65 516.88 C 533.00 499.13 521.53 483.53 506.45 473.70 C 493.91 465.97 479.64 460.91 464.92 459.75 C 447.05 458.16 428.65 460.74 412.35 468.41 C 393.95 476.72 378.74 491.62 369.84 509.72 C 360.86 527.32 356.82 547.37 358.14 567.07 C 359.23 586.07 365.39 605.36 378.27 619.71 C 388.36 631.42 402.40 639.11 417.12 643.39 C 438.68 650.45 461.65 649.63 484.04 649.68 C 519.06 649.66 554.08 649.72 589.10 649.66 C 605.31 649.69 619.73 635.24 619.67 619.03 C 619.71 561.01 619.72 502.99 619.66 444.97 C 619.52 428.84 605.08 414.59 588.94 414.72 C 498.30 414.70 407.65 414.70 317.01 414.72 C 300.85 414.60 286.43 428.89 286.30 445.04 C 286.19 502.35 286.29 559.67 286.25 616.98 C 286.11 623.31 287.68 629.71 291.13 635.06 C 296.60 643.82 306.61 649.57 316.97 649.66 C 330.34 649.74 343.70 649.63 357.07 649.70 C 362.09 649.46 366.63 653.93 366.47 658.95 C 366.57 663.95 362.04 668.35 357.05 668.12 C 343.69 668.18 330.33 668.16 316.97 668.12 C 303.19 668.01 289.63 661.80 280.51 651.49 C 272.31 642.41 267.73 630.22 267.83 617.98 C 267.82 560.67 267.81 503.35 267.83 446.03 C 267.54 425.15 281.93 405.21 301.79 398.83 M 441.42 508.63 C 437.32 509.04 433.54 510.75 430.50 513.52 C 420.04 521.02 414.19 533.11 410.35 545.06 C 407.10 555.82 406.03 567.36 408.56 578.38 C 410.27 582.94 411.60 588.05 415.50 591.30 C 418.97 594.04 422.12 597.79 426.83 598.22 C 432.08 599.87 437.45 597.91 442.50 596.47 C 452.91 591.39 461.29 582.56 466.10 572.03 C 470.98 562.12 473.63 551.11 473.66 540.05 C 473.21 534.23 472.85 528.24 470.02 523.00 C 468.14 517.00 462.69 513.44 457.71 510.19 C 452.52 508.33 446.86 506.89 441.42 508.63 Z" />
<path fill="#006edd" stroke="#006edd" stroke-width="0.09375" opacity="1.00" d=" M 64.06 446.11 C 72.26 446.11 80.46 446.10 88.67 446.11 C 88.63 503.54 88.71 560.97 88.63 618.40 C 80.44 618.35 72.25 618.39 64.06 618.37 C 64.05 560.95 64.05 503.53 64.06 446.11 Z" />
<path fill="#006edd" stroke="#006edd" stroke-width="0.09375" opacity="1.00" d=" M 108.38 446.12 C 153.50 446.11 198.62 446.11 243.74 446.11 C 243.73 454.31 243.73 462.52 243.73 470.72 C 225.30 470.65 206.87 470.85 188.45 470.61 C 188.24 519.86 188.42 569.12 188.36 618.37 C 180.16 618.37 171.95 618.38 163.75 618.37 C 163.75 569.16 163.75 519.94 163.75 470.72 C 145.30 470.71 126.84 470.72 108.38 470.72 C 108.38 462.52 108.38 454.31 108.38 446.12 Z" />
<path fill="#006edd" stroke="#006edd" stroke-width="0.09375" opacity="1.00" d=" M 748.26 446.11 C 756.46 446.10 764.67 446.11 772.88 446.11 C 772.84 487.75 772.94 529.40 772.83 571.04 C 772.67 592.82 755.67 612.84 734.49 617.28 C 726.44 618.97 718.18 618.24 710.02 618.35 C 696.39 618.33 683.18 611.90 674.31 601.63 C 666.26 592.87 662.06 581.01 662.07 569.17 C 670.25 569.14 678.44 569.18 686.62 569.14 C 686.64 578.45 692.23 587.33 700.59 591.38 C 707.87 595.00 716.22 593.45 724.04 593.75 C 736.75 594.00 748.29 582.66 748.23 569.95 C 748.30 528.67 748.24 487.39 748.26 446.11 Z" />
<path fill="#006edd" stroke="#006edd" stroke-width="0.09375" opacity="1.00" d=" M 831.05 446.44 C 840.34 445.74 849.68 446.28 859.00 446.11 C 868.97 446.34 879.22 445.14 888.89 448.26 C 908.86 454.40 923.76 474.29 923.30 495.32 C 915.11 495.34 906.93 495.32 898.74 495.33 C 898.87 482.90 888.44 471.33 875.92 470.81 C 864.29 470.57 852.65 470.81 841.02 470.70 C 836.26 470.63 831.30 470.72 826.92 472.83 C 818.44 476.70 812.34 485.59 812.50 495.02 C 812.49 520.02 812.46 545.03 812.52 570.04 C 812.56 580.73 820.72 590.59 831.04 593.07 C 834.64 593.95 838.38 593.75 842.06 593.78 C 853.37 593.68 864.69 593.90 876.00 593.68 C 888.49 593.10 898.87 581.56 898.73 569.15 C 906.92 569.16 915.10 569.15 923.29 569.16 C 923.73 589.05 910.47 607.90 892.11 615.11 C 885.75 617.65 878.84 618.50 872.04 618.39 C 859.38 618.30 846.72 618.51 834.07 618.28 C 811.99 617.58 792.05 599.62 788.58 577.89 C 787.83 573.62 787.85 569.27 787.87 564.96 C 787.93 540.98 787.79 516.99 787.94 493.02 C 788.30 469.73 807.93 448.68 831.05 446.44 Z" />
<path fill="#006edd" stroke="#006edd" stroke-width="0.09375" opacity="1.00" d=" M 937.76 446.11 C 945.96 446.11 954.16 446.11 962.36 446.11 C 962.37 487.09 962.35 528.06 962.37 569.04 C 962.05 578.73 968.33 587.95 977.12 591.79 C 984.02 594.85 991.72 593.46 999.03 593.76 C 1006.57 593.43 1014.56 594.93 1021.68 591.69 C 1030.04 587.89 1036.18 579.22 1036.16 569.91 C 1036.24 528.64 1036.17 487.38 1036.19 446.11 C 1044.39 446.11 1052.60 446.11 1060.80 446.11 C 1060.77 487.74 1060.86 529.37 1060.76 571.00 C 1060.61 592.78 1043.65 612.80 1022.48 617.27 C 1015.10 618.89 1007.52 618.25 1000.03 618.37 C 990.68 618.22 981.05 619.17 972.00 616.19 C 954.78 610.77 940.93 595.14 938.34 577.16 C 937.57 572.14 937.76 567.04 937.76 561.98 C 937.76 523.35 937.76 484.73 937.76 446.11 Z" />
<path fill="#348dee" stroke="#348dee" stroke-width="0.09375" opacity="1.00" d=" M 382.30 679.22 C 429.43 679.21 476.55 679.20 523.68 679.23 C 526.14 688.80 531.82 697.07 538.71 704.01 C 481.56 704.14 424.40 704.14 367.25 704.01 C 374.16 697.09 379.83 688.79 382.30 679.22 Z" />
<path fill="#348dee" stroke="#348dee" stroke-width="0.09375" opacity="1.00" d=" M 340.32 715.46 C 353.51 714.83 366.78 715.38 380.00 715.20 C 441.02 715.19 502.05 715.21 563.07 715.19 C 566.94 714.76 570.65 718.08 570.48 722.01 C 570.54 725.87 566.89 729.06 563.09 728.67 C 489.71 728.67 416.33 728.66 342.95 728.68 C 339.83 728.94 336.66 726.99 335.80 723.93 C 334.62 720.48 336.80 716.37 340.32 715.46 Z" />
</svg>
